<svg width="20" height="20" viewBox="0 0 20 20" fill="none" xmlns="http://www.w3.org/2000/svg">
<g clip-path="url(#clip0_1_217)">
<path d="M1.66669 10.17C1.66669 8.26249 1.66669 7.30916 2.10002 6.51916C2.53169 5.72832 3.32252 5.23832 4.90335 4.25666L6.57002 3.22249C8.24085 2.18499 9.07669 1.66666 10 1.66666C10.9234 1.66666 11.7584 2.18499 13.43 3.22249L15.0967 4.25666C16.6775 5.23832 17.4684 5.72832 17.9009 6.51916C18.3334 7.30916 18.3334 8.26249 18.3334 10.1692V11.4375C18.3334 14.6875 18.3334 16.3133 17.3567 17.3233C16.3809 18.3333 14.8092 18.3333 11.6667 18.3333H8.33335C5.19085 18.3333 3.61919 18.3333 2.64335 17.3233C1.66669 16.3133 1.66669 14.6883 1.66669 11.4375V10.17Z" stroke="#424242" stroke-width="1.5"/>
<path d="M12.2227 12.9999C11.8898 12.9999 11.6209 13.2606 11.6209 13.5833C11.6209 13.906 11.8898 14.1667 12.2227 14.1667H15.2316C15.5644 14.1667 15.8333 13.906 15.8333 13.5833V10.6664C15.8333 10.3437 15.5644 10.083 15.2316 10.083C14.8987 10.083 14.6298 10.3437 14.6298 10.6664V12.1741L11.4441 9.08763C11.2091 8.85975 10.8273 8.85975 10.5923 9.08763L8.61205 11.0073L6.02819 8.50426C5.79312 8.27637 5.41137 8.27637 5.1763 8.50426C4.94123 8.73214 4.94123 9.10222 5.1763 9.3301L8.18517 12.247C8.42024 12.4749 8.80199 12.4749 9.03705 12.247L11.0191 10.3255L13.7779 12.9999H12.2227Z" fill="#424242"/>
</g>
<defs>
<clipPath id="clip0_1_217">
<rect width="20" height="20" fill="white"/>
</clipPath>
</defs>
</svg>
