<svg width="23" height="23" viewBox="0 0 23 23" fill="none" xmlns="http://www.w3.org/2000/svg">
<path d="M16.1183 9.67175H6.69083L9.93199 6.84351M6.69083 13.4427H16.1183L12.8771 16.271" stroke="#817F7F" stroke-width="1.5" stroke-linecap="round" stroke-linejoin="round"/>
<path d="M20.8321 11.5572C20.8321 16.0014 20.8321 18.2234 19.4509 19.6036C18.0717 20.9847 15.8487 20.9847 11.4046 20.9847C6.96046 20.9847 4.7384 20.9847 3.35727 19.6036C1.97709 18.2244 1.97709 16.0014 1.97709 11.5572C1.97709 7.11313 1.97709 4.89107 3.35727 3.50994C4.73934 2.12976 6.96046 2.12976 11.4046 2.12976C15.8487 2.12976 18.0707 2.12976 19.4509 3.50994C20.3692 4.42818 20.6765 5.7188 20.7802 7.78625" stroke="#817F7F" stroke-width="1.5" stroke-linecap="round"/>
</svg>
